<?xml version="1.0" standalone="no"?>
<!DOCTYPE svg PUBLIC "-//W3C//DTD SVG 20010904//EN"
 "http://www.w3.org/TR/2001/REC-SVG-20010904/DTD/svg10.dtd">
<svg version="1.0" xmlns="http://www.w3.org/2000/svg"
 width="1601.000000pt" height="1601.000000pt" viewBox="0 0 1601.000000 1601.000000"
 preserveAspectRatio="xMidYMid meet">
<metadata>
Created by potrace 1.11, written by Peter Selinger 2001-2013
</metadata>
<g transform="translate(0.000000,1601.000000) scale(0.100000,-0.100000)"
fill="#000000" stroke="none">
<path d="M4565 15386 c-36 -11 -221 -113 -252 -138 -7 -5 -15 -30 -19 -54 -5
-37 -2 -50 19 -82 14 -21 38 -65 55 -98 17 -33 48 -87 70 -119 21 -33 55 -96
74 -140 89 -205 94 -225 73 -318 -8 -40 -22 -101 -30 -137 -23 -107 -37 -350
-35 -604 0 -132 3 -242 5 -245 1 -3 10 -80 19 -171 9 -91 21 -200 26 -242 12
-87 8 -144 -20 -273 -66 -302 -76 -498 -35 -660 4 -17 -7 -25 -67 -53 -40 -18
-77 -32 -82 -32 -8 0 -86 -48 -151 -94 -54 -37 -268 -270 -286 -311 -21 -46
-24 -116 -7 -178 14 -55 2 -95 -38 -119 -49 -30 -108 -58 -125 -58 -9 0 -42
-9 -75 -20 -32 -12 -95 -30 -139 -41 -95 -24 -230 -78 -297 -120 -42 -25 -58
-29 -126 -29 -92 -1 -187 -20 -234 -47 -46 -26 -125 -136 -143 -197 -27 -92
-48 -248 -52 -388 -5 -128 -3 -144 22 -222 36 -117 68 -170 147 -247 95 -93
291 -207 393 -230 49 -11 63 -20 108 -70 66 -73 167 -136 315 -198 213 -90
266 -104 350 -98 58 4 80 11 108 32 19 14 60 37 92 51 31 13 73 33 92 43 19
11 64 31 100 46 36 15 85 36 110 48 34 16 71 22 152 25 121 5 109 14 127 -93
8 -47 43 -213 62 -300 5 -22 14 -65 19 -95 5 -30 17 -80 26 -110 9 -30 19 -73
23 -95 4 -22 29 -105 55 -185 26 -80 52 -161 58 -180 30 -100 157 -387 202
-455 137 -208 154 -229 230 -286 43 -32 73 -37 82 -14 6 14 -31 179 -93 420
-22 86 -27 134 -35 345 -13 352 -15 607 -6 670 12 76 41 159 94 265 84 168
136 235 181 235 82 0 345 -307 481 -560 55 -102 173 -377 205 -475 56 -174
124 -538 103 -553 -6 -5 -33 -17 -61 -27 -92 -34 -199 -99 -258 -158 -73 -73
-109 -149 -147 -304 -16 -68 -37 -138 -46 -155 -24 -46 -97 -135 -151 -182
-24 -21 -75 -76 -113 -120 -38 -45 -169 -183 -292 -307 l-223 -226 -80 -6
c-82 -7 -215 3 -317 23 -31 6 -110 15 -175 20 -258 21 -383 44 -460 83 -72 38
-168 188 -233 365 -24 67 -53 101 -134 162 -69 50 -133 69 -252 72 l-99 3 -70
-44 c-39 -24 -91 -62 -118 -83 -56 -48 -117 -150 -117 -199 0 -22 -12 -52 -33
-84 -42 -63 -57 -122 -57 -228 0 -56 -4 -88 -12 -94 -7 -6 -55 -13 -106 -16
-84 -4 -102 -9 -175 -45 -45 -23 -105 -61 -133 -86 -45 -39 -52 -52 -63 -102
-15 -78 -14 -134 6 -233 14 -75 19 -85 47 -102 31 -18 42 -27 63 -53 54 -65
443 -79 493 -18 9 10 37 24 63 30 43 11 51 10 94 -12 74 -37 185 -84 218 -91
17 -3 64 -15 105 -25 41 -11 89 -19 105 -18 17 0 40 -4 51 -10 11 -6 53 -13
94 -17 41 -4 82 -9 90 -12 19 -7 -241 -94 -368 -123 -53 -12 -140 -32 -192
-45 -140 -35 -200 -43 -355 -50 -269 -13 -745 0 -887 23 -85 14 -361 74 -387
83 l-23 9 33 39 c46 53 73 99 98 165 29 79 79 176 108 210 13 16 54 47 91 69
88 52 197 159 218 214 14 35 15 66 10 171 -7 139 -21 201 -69 302 -28 57 -32
76 -34 165 -3 101 -24 223 -48 282 -11 27 -20 33 -59 38 -44 7 -45 8 -60 59
-8 28 -17 78 -19 111 -3 49 -10 70 -40 115 -20 31 -57 73 -82 93 -103 87 -90
167 51 317 49 52 69 109 54 159 -5 18 -32 75 -60 127 -27 52 -50 101 -50 108
0 8 -8 24 -18 36 -25 31 -52 17 -52 -29 -1 -48 -15 -120 -26 -131 -9 -9 -152
23 -187 42 -57 30 -63 209 -10 313 84 164 113 229 113 255 0 41 -47 225 -67
264 -9 17 -24 42 -35 55 -10 13 -25 47 -34 75 -17 59 -26 71 -76 108 -47 35
-73 114 -88 258 -11 109 -16 124 -46 118 -19 -3 -29 -29 -39 -98 -3 -25 -14
-54 -23 -65 -26 -30 -123 -105 -137 -105 -18 0 -41 31 -55 75 -7 22 -25 69
-40 105 -24 56 -34 91 -56 208 -2 12 -9 22 -14 22 -17 0 -29 -44 -44 -167 -16
-130 -53 -232 -119 -335 -39 -59 -97 -196 -97 -226 0 -10 -7 -27 -15 -38 -11
-14 -14 -50 -15 -144 l0 -126 -45 -44 c-31 -30 -46 -39 -49 -29 -12 38 -26
111 -26 133 0 44 -45 24 -63 -27 -4 -9 -34 -34 -69 -55 -73 -44 -144 -113
-165 -161 -17 -39 -19 -148 -3 -201 5 -19 10 -46 10 -60 0 -14 22 -70 50 -126
l50 -101 -15 -43 c-43 -122 10 -370 114 -535 64 -101 30 -168 -141 -277 -14
-10 -29 -28 -33 -40 -12 -45 -29 -68 -48 -68 -16 0 -18 5 -14 38 2 20 14 74
26 120 18 66 20 86 11 97 -7 8 -18 15 -25 15 -16 0 -97 -106 -130 -169 -15
-27 -34 -56 -42 -63 -14 -12 -78 -138 -105 -207 -12 -32 -31 -182 -30 -236 1
-60 27 -112 88 -175 30 -32 60 -75 69 -99 13 -38 13 -51 -1 -119 -8 -43 -33
-129 -53 -192 -48 -143 -56 -201 -37 -263 26 -87 119 -209 212 -278 74 -55
117 -70 193 -68 56 1 86 -6 193 -45 70 -25 130 -46 133 -46 3 0 42 -18 87 -40
100 -48 152 -51 320 -19 60 11 111 19 112 17 2 -1 17 -26 33 -55 42 -76 126
-134 371 -256 228 -115 746 -230 1152 -257 351 -23 722 -17 990 15 69 8 150
15 180 15 59 0 149 15 325 54 61 13 166 36 235 50 222 47 405 96 565 151 87
30 164 60 172 66 29 25 22 0 -12 -41 -57 -68 -181 -242 -200 -280 -10 -19 -23
-42 -31 -50 -21 -25 -149 -289 -172 -355 -60 -177 -75 -238 -122 -508 -12 -65
-31 -153 -45 -195 -34 -112 -73 -278 -80 -348 -8 -68 10 -231 27 -252 6 -7 21
-33 32 -58 13 -26 79 -104 166 -195 80 -84 154 -166 165 -183 11 -17 48 -66
83 -109 l63 -78 -26 -42 c-61 -99 -145 -190 -265 -287 -153 -123 -172 -140
-191 -165 -8 -11 -49 -37 -92 -59 -110 -54 -171 -98 -285 -203 -89 -83 -172
-190 -172 -222 0 -7 11 -23 25 -36 23 -24 30 -25 143 -25 66 0 159 7 207 15
48 9 89 14 91 12 2 -1 -26 -63 -62 -135 -36 -73 -68 -148 -71 -167 -5 -30 -2
-36 21 -46 22 -10 43 -9 124 10 359 83 472 114 520 143 18 11 35 18 37 16 2
-2 -9 -31 -25 -64 -38 -80 -62 -166 -58 -206 4 -39 30 -47 81 -27 73 28 311
146 427 210 69 39 132 74 140 78 8 5 29 15 45 22 17 8 32 17 35 20 3 4 21 14
40 23 97 46 283 181 360 261 32 35 114 91 258 181 151 94 187 120 263 191 44
42 86 88 94 102 20 39 30 220 15 267 -17 54 -86 171 -129 220 -43 49 -105 170
-122 236 l-11 48 56 61 c31 33 81 92 112 130 30 38 59 69 65 69 5 0 20 12 33
26 l22 27 93 -63 c51 -34 125 -79 164 -99 40 -21 91 -49 114 -64 24 -15 44
-27 47 -27 5 0 295 -137 327 -155 32 -18 368 -136 464 -163 115 -33 263 -60
390 -72 66 -6 147 -16 180 -22 34 -6 209 -10 400 -11 291 0 366 3 520 22 99
12 209 29 245 38 36 9 93 19 127 22 l62 7 26 -48 c36 -66 257 -269 368 -337
65 -40 89 -61 93 -80 3 -14 9 -37 14 -51 17 -51 21 -85 21 -176 0 -87 -6 -134
-32 -291 -9 -52 -8 -72 6 -120 9 -32 21 -65 25 -75 14 -25 0 -87 -35 -158 -78
-157 -120 -345 -119 -530 1 -94 5 -134 18 -163 9 -20 21 -37 26 -37 24 0 129
67 179 114 31 29 75 70 99 91 77 68 187 179 219 221 20 26 46 45 71 53 36 12
43 12 80 -9 35 -20 42 -30 52 -74 15 -64 33 -126 75 -246 19 -52 37 -106 41
-120 13 -46 67 -132 90 -142 19 -9 31 -5 74 23 63 41 118 118 150 209 12 36
26 70 31 75 9 12 65 161 80 216 14 47 59 69 157 76 40 3 75 10 78 14 3 5 9 9
13 9 8 0 61 -110 61 -126 0 -5 10 -25 23 -44 12 -19 40 -75 61 -125 52 -123
93 -185 122 -185 72 0 182 302 209 575 3 38 0 92 -10 144 -18 92 -16 408 4
731 13 192 6 366 -16 465 -29 126 -95 232 -238 380 -43 44 -94 105 -114 135
-47 70 -101 186 -101 214 1 22 16 30 231 129 84 39 198 103 279 157 14 9 72
48 129 86 57 38 143 104 190 148 87 79 246 212 304 254 49 36 108 95 152 152
50 66 99 128 127 160 11 14 37 50 57 80 19 30 56 78 82 107 25 28 55 69 65 90
11 21 41 73 67 115 27 43 69 130 93 195 25 65 54 139 65 165 40 96 119 478
120 582 0 33 6 101 13 149 9 63 10 141 5 270 -18 407 -39 519 -195 999 -19 58
-53 139 -75 180 -63 112 -107 188 -139 238 -16 25 -48 77 -71 115 -50 82 -135
202 -152 212 -7 5 -38 36 -69 71 -59 64 -180 172 -195 172 -4 0 -36 27 -70 60
-74 69 -75 73 -33 202 16 51 39 140 51 198 11 58 32 139 44 180 13 41 33 111
44 155 11 44 41 130 67 190 25 61 56 139 68 175 13 36 51 117 85 180 34 63 75
144 92 180 66 144 96 194 134 228 54 46 124 53 222 21 180 -58 348 -121 397
-150 11 -6 71 -38 135 -70 138 -70 199 -105 226 -129 11 -9 52 -39 90 -65 287
-197 452 -413 515 -675 27 -113 69 -251 80 -265 10 -12 44 -138 105 -385 24
-96 50 -193 58 -215 8 -22 18 -60 21 -85 4 -25 18 -92 32 -150 51 -227 71
-400 54 -475 -6 -27 -47 -127 -90 -221 -79 -169 -95 -226 -65 -238 8 -3 28 6
44 19 16 14 36 25 45 25 9 0 33 19 53 41 21 23 63 69 94 103 153 165 227 317
273 561 8 44 26 127 40 185 26 106 70 359 81 460 4 30 13 84 20 120 8 36 23
169 35 297 25 287 26 604 3 828 -9 88 -17 219 -18 290 -2 110 -28 313 -50 385
-2 8 -18 94 -35 190 -27 153 -54 271 -117 515 -34 132 -204 624 -258 748 -98
222 -157 329 -203 364 -24 18 -56 36 -70 39 -15 4 -47 19 -72 33 -25 15 -82
43 -127 64 -45 20 -103 50 -130 66 -74 47 -154 87 -198 101 -45 14 -224 109
-327 173 -36 23 -95 69 -130 102 -36 33 -102 92 -149 131 -84 72 -131 118
-382 375 -72 74 -150 148 -172 164 -22 16 -61 48 -86 70 -25 22 -59 47 -75 55
-16 8 -45 24 -64 36 -167 101 -249 145 -526 279 -11 6 -45 22 -75 36 -54 27
-173 71 -348 128 -109 37 -141 57 -173 110 -13 22 -55 93 -95 158 -47 77 -86
157 -113 232 -22 62 -47 125 -54 140 -46 85 -165 340 -170 363 -16 69 -153
160 -240 159 -49 0 -173 -25 -219 -45 -53 -22 -180 -159 -194 -209 -30 -109
-9 -183 82 -285 36 -40 72 -87 81 -105 10 -18 32 -51 50 -75 44 -58 93 -159
158 -327 30 -77 70 -182 90 -232 47 -122 47 -167 -3 -370 -21 -87 -42 -174
-45 -194 -4 -20 -26 -97 -51 -172 -44 -134 -102 -352 -125 -472 -6 -33 -22
-96 -35 -140 -13 -44 -36 -124 -50 -178 -40 -145 -118 -372 -185 -532 -23 -55
-54 -134 -70 -175 -51 -134 -159 -354 -195 -397 -19 -23 -65 -58 -102 -79 -80
-44 -396 -207 -573 -296 -69 -34 -172 -89 -230 -121 -58 -33 -184 -100 -280
-149 -209 -108 -235 -123 -366 -209 -56 -37 -124 -79 -151 -93 -105 -53 -146
-108 -158 -216 -29 -248 -112 -455 -250 -620 -71 -85 -71 -85 -132 -126 -88
-58 -87 -58 -279 142 -93 97 -183 186 -201 198 -53 36 -370 332 -432 403 -32
38 -97 104 -145 148 -134 123 -212 222 -235 297 -38 127 -100 476 -101 563 -1
89 -25 234 -48 285 -11 25 -37 90 -58 145 -39 105 -47 125 -113 271 -53 118
-55 135 -16 148 17 5 68 27 113 48 46 21 85 38 87 38 2 0 46 20 98 44 51 24
113 49 138 56 184 47 468 146 496 171 13 13 35 62 54 118 24 76 29 104 24 140
-10 70 -33 110 -76 131 -53 28 -247 28 -351 1 -40 -10 -95 -23 -123 -28 -27
-6 -88 -22 -135 -37 -47 -15 -119 -34 -160 -42 -41 -9 -149 -40 -239 -69
l-164 -54 -46 24 c-58 31 -87 57 -138 125 -36 49 -102 115 -219 220 -21 19
-53 51 -70 70 -54 63 -218 206 -321 281 -19 14 -51 50 -70 80 -45 71 -128 237
-159 319 -14 35 -45 104 -69 153 -42 83 -89 198 -156 380 -33 90 -62 142 -137
247 -29 41 -60 88 -68 105 -20 43 -72 125 -103 162 -86 103 -98 127 -167 323
-20 58 -40 114 -45 125 -4 11 -27 77 -49 147 -23 70 -53 141 -66 159 -13 18
-24 38 -24 43 0 6 -13 26 -28 44 -22 27 -40 36 -92 47 -77 17 -75 17 -125 1z
m6840 -6012 c121 -22 322 -126 469 -243 161 -127 466 -465 442 -489 -2 -2 -28
3 -57 12 -30 8 -99 20 -154 26 -55 7 -132 21 -171 31 -80 21 -486 43 -614 34
-299 -21 -383 -29 -520 -51 -203 -33 -378 -68 -465 -95 -147 -44 -261 -83
-290 -97 -43 -22 -159 -62 -164 -57 -9 9 26 93 89 217 53 105 86 152 180 264
115 137 129 148 306 259 17 11 56 37 85 57 65 45 218 108 262 108 18 1 68 8
112 16 173 34 331 36 490 8z m-395 -2192 c182 -44 310 -94 430 -166 58 -35
123 -73 145 -84 76 -40 199 -173 247 -266 59 -116 82 -277 53 -386 -31 -123
-120 -270 -232 -385 -85 -88 -119 -104 -171 -82 -20 8 -44 18 -52 22 -39 16
-61 36 -107 95 -50 66 -153 214 -229 330 -24 36 -70 106 -104 155 -33 50 -94
144 -135 210 -82 133 -147 230 -245 363 -36 49 -82 112 -102 140 l-37 52 22
12 c40 22 91 27 242 24 128 -3 169 -8 275 -34z"/>
</g>
</svg>
